<?xml version="1.0" standalone="no"?>
<!DOCTYPE svg PUBLIC "-//W3C//DTD SVG 20010904//EN"
 "http://www.w3.org/TR/2001/REC-SVG-20010904/DTD/svg10.dtd">
<svg version="1.0" xmlns="http://www.w3.org/2000/svg"
 width="260.000000pt" height="210.000000pt" viewBox="0 0 260.000000 210.000000"
 preserveAspectRatio="xMidYMid meet">

<g transform="translate(0.000000,210.000000) scale(0.100000,-0.100000)"
fill="#000000" stroke="none">
<path d="M2124 1890 c-185 -16 -409 -92 -569 -195 -156 -101 -275 -223 -373
-382 -48 -79 -124 -244 -136 -297 l-7 -29 48 38 c57 46 332 282 487 418 93 81
114 105 137 156 33 74 60 90 117 73 47 -14 143 -109 172 -168 32 -65 20 -86
-89 -152 -61 -38 -141 -123 -306 -327 -44 -54 -106 -129 -137 -166 -53 -62
-69 -89 -52 -89 13 0 261 123 309 153 250 156 425 349 526 578 64 146 106 351
79 384 -14 16 -52 17 -206 5z"/>
<path d="M769 1849 c-7 -14 -10 -57 -7 -118 4 -87 8 -103 42 -170 57 -112 140
-185 263 -232 l26 -10 -6 108 c-4 59 -13 130 -21 156 -34 109 -111 206 -207
261 -56 32 -75 33 -90 5z"/>
<path d="M426 1682 c-8 -13 29 -85 60 -115 16 -16 42 -36 58 -44 32 -17 156
-31 156 -18 0 4 -14 30 -31 58 -30 48 -71 90 -113 114 -23 14 -122 17 -130 5z"/>
<path d="M498 1358 c-31 -13 -69 -32 -85 -44 l-28 -21 54 -51 c113 -108 269
-146 424 -103 37 10 86 31 109 46 l42 28 -44 40 c-88 78 -194 118 -325 123
-76 4 -99 1 -147 -18z"/>
<path d="M575 990 c-88 -15 -211 -44 -273 -64 l-113 -37 48 -40 c187 -155 599
-259 1023 -259 251 0 559 47 733 111 99 36 230 105 258 135 l20 21 -53 23
c-118 51 -233 72 -268 50 -12 -8 -10 -14 13 -38 34 -35 36 -80 5 -109 -42 -40
-173 -82 -336 -110 -141 -24 -182 -27 -407 -27 -300 -1 -469 21 -638 82 -150
53 -181 96 -114 159 58 55 112 74 337 118 l65 13 -70 0 c-38 0 -142 -12 -230
-28z"/>
<path d="M188 782 c13 -35 87 -169 128 -232 162 -251 406 -423 675 -477 101
-19 338 -22 449 -4 347 56 601 254 802 627 l40 75 -58 -27 c-197 -88 -500
-181 -689 -210 -173 -27 -476 -25 -640 4 -189 33 -404 107 -617 212 -69 35
-95 44 -90 32z"/>
</g>
</svg>
